<svg xmlns="http://www.w3.org/2000/svg" xmlns:svg="http://www.w3.org/2000/svg" id="svg3953" width="64" height="64" version="1.1"><metadata id="metadata3958"/><g id="layer1"><path style="color:#000;fill:#ffbc31;fill-opacity:1;fill-rule:nonzero;stroke:none;stroke-width:1px;marker:none;visibility:visible;display:inline;overflow:visible;enable-background:accumulate" id="path3880" d="m 430.34077,497.17288 a 54.137863,54.137863 0 1 1 -108.27572,0 54.137863,54.137863 0 1 1 108.27572,0 z" transform="matrix(0.12109331,0,0,0.12109331,-13.265786,-28.37566)"/><path id="path3882" d="m 430.34077,497.17288 a 54.137863,54.137863 0 1 1 -108.27572,0 54.137863,54.137863 0 1 1 108.27572,0 z" transform="matrix(0.08332659,0,0,0.08332659,16.16315,-9.5666113)" style="color:#000;fill:#ffbc31;fill-opacity:1;fill-rule:nonzero;stroke:none;stroke-width:1px;marker:none;visibility:visible;display:inline;overflow:visible;enable-background:accumulate"/><path style="color:#000;fill:#ffbc31;fill-opacity:1;fill-rule:nonzero;stroke:none;stroke-width:1px;marker:none;visibility:visible;display:inline;overflow:visible;enable-background:accumulate" id="path3884" d="m 430.34077,497.17288 a 54.137863,54.137863 0 1 1 -108.27572,0 54.137863,54.137863 0 1 1 108.27572,0 z" transform="matrix(0.08332659,0,0,0.08332659,-14.084095,-9.5666113)"/><path id="path3886" d="m 430.34077,497.17288 a 54.137863,54.137863 0 1 1 -108.27572,0 54.137863,54.137863 0 1 1 108.27572,0 z" transform="matrix(0.08332659,0,0,0.08332659,1.0395274,-23.521885)" style="color:#000;fill:#db3e14;fill-opacity:1;fill-rule:nonzero;stroke:none;stroke-width:1px;marker:none;visibility:visible;display:inline;overflow:visible;enable-background:accumulate"/><path style="color:#000;fill:#6ab141;fill-opacity:1;fill-rule:nonzero;stroke:none;stroke-width:1px;marker:none;visibility:visible;display:inline;overflow:visible;enable-background:accumulate" id="path3888" d="m 430.34077,497.17288 a 54.137863,54.137863 0 1 1 -108.27572,0 54.137863,54.137863 0 1 1 108.27572,0 z" transform="matrix(0.08332659,0,0,0.08332659,1.0395274,4.648296)"/><path id="path3890" d="m 430.34077,497.17288 a 54.137863,54.137863 0 1 1 -108.27572,0 54.137863,54.137863 0 1 1 108.27572,0 z" transform="matrix(0.05958871,0,0,0.05958871,23.073397,14.820776)" style="color:#000;fill:#6ab141;fill-opacity:1;fill-rule:nonzero;stroke:none;stroke-width:1px;marker:none;visibility:visible;display:inline;overflow:visible;enable-background:accumulate"/><path style="color:#000;fill:#db3e14;fill-opacity:1;fill-rule:nonzero;stroke:none;stroke-width:1px;marker:none;visibility:visible;display:inline;overflow:visible;enable-background:accumulate" id="path3892" d="m 430.34077,497.17288 a 54.137863,54.137863 0 1 1 -108.27572,0 54.137863,54.137863 0 1 1 108.27572,0 z" transform="matrix(0.05958871,0,0,0.05958871,23.073397,-9.7800509)"/><path id="path3894" d="m 430.34077,497.17288 a 54.137863,54.137863 0 1 1 -108.27572,0 54.137863,54.137863 0 1 1 108.27572,0 z" transform="matrix(0.05958871,0,0,0.05958871,-3.2715184,-9.7800509)" style="color:#000;fill:#db3e14;fill-opacity:1;fill-rule:nonzero;stroke:none;stroke-width:1px;marker:none;visibility:visible;display:inline;overflow:visible;enable-background:accumulate"/><path style="color:#000;fill:#6ab141;fill-opacity:1;fill-rule:nonzero;stroke:none;stroke-width:1px;marker:none;visibility:visible;display:inline;overflow:visible;enable-background:accumulate" id="path3896" d="m 430.34077,497.17288 a 54.137863,54.137863 0 1 1 -108.27572,0 54.137863,54.137863 0 1 1 108.27572,0 z" transform="matrix(0.05958871,0,0,0.05958871,-3.2715184,14.912571)"/><path id="path3898" d="m 430.34077,497.17288 a 54.137863,54.137863 0 1 1 -108.27572,0 54.137863,54.137863 0 1 1 108.27572,0 z" transform="matrix(0.05140182,0,0,0.05140182,-12.659834,6.234627)" style="color:#000;fill:#ffbc31;fill-opacity:1;fill-rule:nonzero;stroke:none;stroke-width:1px;marker:none;visibility:visible;display:inline;overflow:visible;enable-background:accumulate"/><path style="color:#000;fill:#ffbc31;fill-opacity:1;fill-rule:nonzero;stroke:none;stroke-width:1px;marker:none;visibility:visible;display:inline;overflow:visible;enable-background:accumulate" id="path3900" d="m 430.34077,497.17288 a 54.137863,54.137863 0 1 1 -108.27572,0 54.137863,54.137863 0 1 1 108.27572,0 z" transform="matrix(0.05140182,0,0,0.05140182,38.653083,6.2575758)"/><path id="path3902" d="m 430.34077,497.17288 a 54.137863,54.137863 0 1 1 -108.27572,0 54.137863,54.137863 0 1 1 108.27572,0 z" transform="matrix(0.05140182,0,0,0.05140182,12.981868,-19.186459)" style="color:#000;fill:#83001f;fill-opacity:1;fill-rule:nonzero;stroke:none;stroke-width:1px;marker:none;visibility:visible;display:inline;overflow:visible;enable-background:accumulate"/><path style="color:#000;fill:#00613a;fill-opacity:1;fill-rule:nonzero;stroke:none;stroke-width:1px;marker:none;visibility:visible;display:inline;overflow:visible;enable-background:accumulate" id="path3904" d="m 430.34077,497.17288 a 54.137863,54.137863 0 1 1 -108.27572,0 54.137863,54.137863 0 1 1 108.27572,0 z" transform="matrix(0.05140182,0,0,0.05140182,12.981868,32.350694)"/><path id="path3906" d="m 430.34077,497.17288 a 54.137863,54.137863 0 1 1 -108.27572,0 54.137863,54.137863 0 1 1 108.27572,0 z" transform="matrix(0.03125194,0,0,0.03125194,33.273013,39.65286)" style="color:#000;fill:#00613a;fill-opacity:1;fill-rule:nonzero;stroke:none;stroke-width:1px;marker:none;visibility:visible;display:inline;overflow:visible;enable-background:accumulate"/><path style="color:#000;fill:#00613a;fill-opacity:1;fill-rule:nonzero;stroke:none;stroke-width:1px;marker:none;visibility:visible;display:inline;overflow:visible;enable-background:accumulate" id="path3908" d="m 430.34077,497.17288 a 54.137863,54.137863 0 1 1 -108.27572,0 54.137863,54.137863 0 1 1 108.27572,0 z" transform="matrix(0.03125194,0,0,0.03125194,44.388551,28.43996)"/><path id="path3910" d="m 430.34077,497.17288 a 54.137863,54.137863 0 1 1 -108.27572,0 54.137863,54.137863 0 1 1 108.27572,0 z" transform="matrix(0.03125194,0,0,0.03125194,44.409869,5.2109534)" style="color:#000;fill:#83001f;fill-opacity:1;fill-rule:nonzero;stroke:none;stroke-width:1px;marker:none;visibility:visible;display:inline;overflow:visible;enable-background:accumulate"/><path style="color:#000;fill:#83001f;fill-opacity:1;fill-rule:nonzero;stroke:none;stroke-width:1px;marker:none;visibility:visible;display:inline;overflow:visible;enable-background:accumulate" id="path3912" d="m 430.34077,497.17288 a 54.137863,54.137863 0 1 1 -108.27572,0 54.137863,54.137863 0 1 1 108.27572,0 z" transform="matrix(0.03125194,0,0,0.03125194,33.229422,-6.4563061)"/><path id="path3914" d="m 430.34077,497.17288 a 54.137863,54.137863 0 1 1 -108.27572,0 54.137863,54.137863 0 1 1 108.27572,0 z" transform="matrix(0.03125194,0,0,0.03125194,7.9211239,-6.4563061)" style="color:#000;fill:#83001f;fill-opacity:1;fill-rule:nonzero;stroke:none;stroke-width:1px;marker:none;visibility:visible;display:inline;overflow:visible;enable-background:accumulate"/><path style="color:#000;fill:#83001f;fill-opacity:1;fill-rule:nonzero;stroke:none;stroke-width:1px;marker:none;visibility:visible;display:inline;overflow:visible;enable-background:accumulate" id="path3916" d="m 430.34077,497.17288 a 54.137863,54.137863 0 1 1 -108.27572,0 54.137863,54.137863 0 1 1 108.27572,0 z" transform="matrix(0.03125194,0,0,0.03125194,-3.3242307,4.7728226)"/><path id="path3918" d="m 430.34077,497.17288 a 54.137863,54.137863 0 1 1 -108.27572,0 54.137863,54.137863 0 1 1 108.27572,0 z" transform="matrix(0.03125194,0,0,0.03125194,-3.3514526,28.410903)" style="color:#000;fill:#00613a;fill-opacity:1;fill-rule:nonzero;stroke:none;stroke-width:1px;marker:none;visibility:visible;display:inline;overflow:visible;enable-background:accumulate"/><path style="color:#000;fill:#00613a;fill-opacity:1;fill-rule:nonzero;stroke:none;stroke-width:1px;marker:none;visibility:visible;display:inline;overflow:visible;enable-background:accumulate" id="path3920" d="m 430.34077,497.17288 a 54.137863,54.137863 0 1 1 -108.27572,0 54.137863,54.137863 0 1 1 108.27572,0 z" transform="matrix(0.03125194,0,0,0.03125194,7.9392249,39.609784)"/></g></svg>