<svg xmlns="http://www.w3.org/2000/svg" xmlns:svg="http://www.w3.org/2000/svg" id="svg2" width="195.359" height="29.952" version="1.1" viewBox="0 0 183.149 28.08"><metadata id="metadata7"/><g id="layer1" transform="translate(-119.67801,-73.038508)"><g style="font-style:normal;font-weight:400;font-size:40px;line-height:125%;font-family:sans-serif;letter-spacing:0;word-spacing:0;fill:#000;fill-opacity:1;stroke:none;stroke-width:1px;stroke-linecap:butt;stroke-linejoin:miter;stroke-opacity:1" id="text4136"><path style="fill:#db3e14;fill-opacity:1" id="path4230" d="m 147.838,81.198508 -6.4,19.600002 -3.52,0 -4.16,-13.800002 -4.16,13.800002 -3.52,0 -6.4,-19.600002 4,0 4.2,13.44 4.4,-13.44 3.2,0 4.28,13.44 4.08,-13.44 4,0 z"/><path style="fill:#db3e14;fill-opacity:1" id="path4232" d="m 155.09862,77.198508 -3.84,0 0,-3.92 3.84,0 0,3.92 z m 0,23.600002 -3.84,0 0,-19.600002 3.84,0 0,19.600002 z"/><path style="fill:#db3e14;fill-opacity:1" id="path4234" d="m 177.55175,100.79851 -4.48,0 -5.44,-9.360002 -3.2,3.32 0,6.040002 -3.84,0 0,-27.760002 3.84,0 0,17.08 8.08,-8.92 4.6,0 -6.88,7.56 7.32,12.040002 z"/><path style="fill:#db3e14;fill-opacity:1" id="path4236" d="m 184.708,77.198508 -3.84,0 0,-3.92 3.84,0 0,3.92 z m 0,23.600002 -3.84,0 0,-19.600002 3.84,0 0,19.600002 z"/><path style="fill:#ffbc31;fill-opacity:1" id="path4238" d="m 197.12112,100.79851 -1.4,0 q -2.84,0 -4.04,-1.280002 -1.2,-1.28 -1.2,-4.12 l 0,-11 -1.88,0 0,-3.2 1.88,0 0,-5.88 3.84,0 0,5.88 2.8,0 0,3.2 -2.8,0 0,10.32 q 0,1.36 0.44,1.92 0.48,0.56 1.8,0.56 l 0.56,0 0,3.600002 z"/><path style="fill:#ffbc31;fill-opacity:1" id="path4240" d="m 216.228,90.998508 q 0,10.120002 -8.24,10.120002 -4.88,0 -6.96,-3.720002 -1.28,-2.28 -1.28,-6.4 0,-10.12 8.24,-10.12 8.24,0 8.24,10.12 z m -3.84,0 q 0,-6.28 -4.4,-6.28 -4.4,0 -4.4,6.28 0,6.28 4.4,6.28 4.4,0 4.4,-6.28 z"/><path style="fill:#69b140;fill-opacity:1" id="path4242" d="m 227.46612,100.79851 -1.4,0 q -2.84,0 -4.04,-1.280002 -1.2,-1.28 -1.2,-4.12 l 0,-22.36 3.84,0 0,21.68 q 0,1.36 0.44,1.92 0.48,0.56 1.8,0.56 l 0.56,0 0,3.600002 z"/><path style="fill:#69b140;fill-opacity:1" id="path4244" d="m 246.10425,92.398508 -12.32,0 0,0.36 q 0,2.04 1.24,3.28 1.28,1.24 3.32,1.24 2.6,0 4.48,-1.88 l 2.84,2.4 q -2.68,3.320002 -7.16,3.320002 -4.4,0 -6.6,-2.800002 -2,-2.56 -2,-7.08 0,-4.4 1.88,-7.16 2.16,-3.2 6.32,-3.2 4.2,0 6.24,2.96 1.76,2.52 1.76,6.88 l 0,1.68 z m -3.84,-3.24 q 0.04,-1.96 -1.08,-3.32 -1.12,-1.36 -3.04,-1.36 -2.04,0 -3.16,1.32 -1.08,1.28 -1.2,3.36 l 8.48,0 z"/><path style="fill:#69b140;fill-opacity:1" id="path4246" d="m 265.82987,100.79851 -3.84,0 0,-1.880002 -0.12,0 q -1.16,2.200002 -5,2.200002 -2.96,0 -4.88,-1.440002 -2.12,-1.6 -2.12,-4.44 0,-3.04 2.08,-4.6 1.84,-1.4 5.04,-1.4 l 5,0 0,-1.96 q 0,-1.76 -1.36,-2.36 -0.92,-0.44 -2.92,-0.44 -1.84,0 -2.8,0.68 -0.4,0.28 -0.8,0.84 l -3.08,-2.28 q 2.08,-2.84 6.76,-2.84 8.04,0 8.04,6.04 l 0,13.880002 z m -3.84,-6.600002 0,-1.72 -4.96,0 q -3.32,0 -3.32,2.44 0,2.6 4.12,2.6 2.08,0 3.04,-0.64 1.12,-0.76 1.12,-2.68 z"/><path style="fill:#69b140;fill-opacity:1" id="path4248" d="m 284.57112,82.318508 -2.8,3.48 q -0.96,-1.04 -2.6,-1.04 -1.72,0 -2.8,1.12 -1.08,1.08 -1.08,2.8 l 0,12.120002 -3.84,0 0,-19.600002 3.84,0 0,2.28 q 1.88,-2.64 5.28,-2.64 2.48,0 4,1.48 z"/><path style="fill:#69b140;fill-opacity:1" id="path4250" d="m 302.82675,100.79851 -3.84,0 0,-11.840002 q 0,-1.84 -1.04,-3.04 -1,-1.2 -2.8,-1.2 -1.64,0 -2.76,1.2 -1.08,1.16 -1.08,2.84 l 0,12.040002 -3.84,0 0,-19.600002 3.84,0 0,2 q 2.04,-2.32 4.96,-2.32 3.12,0 4.88,2.12 1.68,1.96 1.68,5.16 l 0,12.640002 z"/></g></g></svg>